<?xml version="1.0" standalone="yes"?>
<svg xmlns="http://www.w3.org/2000/svg" width="512" height="512">
<path style="fill:#ffffff; stroke:none;" d="M0 0L0 234L1 234C1.01832 206.34 10.4316 176.983 21.6944 152C57.8782 71.7361 144.391 1.06039 236 1L214 0L166 0L0 0z"/>
<path style="fill:#25b7d3; stroke:none;" d="M236 0.424377C187.373 6.81223 143.062 20.2214 103 49.7346C76.2618 69.4324 52.2567 95.0968 35.7199 124C-31.7995 242.011 -0.199608 398.8 118 472.424C139.4 485.753 162.544 496.656 187 503.116C221.592 512.253 257.548 514.493 293 509.718C328.982 504.87 363.284 491.556 394 472.424C419.072 456.807 441.11 436.288 459.207 413C534.054 316.681 528.669 174.485 446.83 84C416.097 50.0203 377.244 26.0676 334 11.6667C303.894 1.64105 267.677 -3.73682 236 0.424377z"/>
<path style="fill:#ffffff; stroke:none;" d="M276 0L276 1C367.609 1.06039 454.122 71.736 490.306 152C501.568 176.983 510.982 206.34 511 234L512 234L512 0L276 0z"/>
<path style="fill:#d7f3f7; stroke:none;" d="M228 113L228 114L284 114L266 113L228 113z"/>
<path style="fill:#ffffff; stroke:none;" d="M228 114L228 228L114 228L114 284L228 284L228 398L284 398L284 284L398 284L398 228L284 228L284 114L228 114z"/>
<path style="fill:#d7f3f7; stroke:none;" d="M113 228L113 284L114 284L114 246L113 228z"/>
<path style="fill:#e5f7fb; stroke:none;" d="M398 228L398 284L399 284L399 246L398 228z"/>
<path style="fill:#ffffff; stroke:none;" d="M0 278L0 512L236 512L236 511C147.999 510.942 61.1757 444.04 24.7809 367C15.6969 347.771 9.09444 327.785 4.66127 307C2.7424 298.003 3.48414 286.3 0 278M511 278C510.982 305.66 501.568 335.017 490.306 360C454.122 440.264 367.609 510.939 276 511L276 512L512 512L512 347L512 300L511 278z"/>
<path style="fill:#e5f7fb; stroke:none;" d="M228 398L228 399L284 399L266 398L228 398z"/>
</svg>
