<?xml version="1.0" standalone="no"?>
<!DOCTYPE svg PUBLIC "-//W3C//DTD SVG 20010904//EN"
 "http://www.w3.org/TR/2001/REC-SVG-20010904/DTD/svg10.dtd">
<svg version="1.0" xmlns="http://www.w3.org/2000/svg"
 width="256.000000pt" height="256.000000pt" viewBox="0 0 256.000000 256.000000"
 preserveAspectRatio="xMidYMid meet">

<g transform="translate(0.000000,256.000000) scale(0.100000,-0.100000)"
fill="#000000" stroke="none">
<path d="M1170 2473 c-19 -2 -66 -10 -105 -19 -229 -49 -422 -153 -584 -314
-454 -451 -463 -1165 -23 -1632 139 -147 349 -272 547 -324 123 -32 336 -43
466 -24 364 53 691 287 861 615 91 177 131 338 131 535 0 448 -242 843 -643
1045 -194 98 -433 141 -650 118z m275 -158 c170 -30 330 -112 452 -231 54 -54
135 -161 149 -199 10 -26 -58 -18 -173 21 -59 19 -118 34 -131 32 -23 -3 -17
-12 76 -108 l101 -105 -205 -205 -204 -205 204 -204 205 -204 -102 -109 -101
-109 -208 208 -208 208 -205 -205 -205 -205 -105 105 -105 105 205 205 205
205 -205 205 -205 205 38 40 c20 22 53 57 72 79 l35 39 -35 -6 c-37 -5 -173
-66 -178 -79 -8 -17 -22 5 -22 34 0 22 -6 31 -21 35 -25 7 -22 15 33 96 180
267 518 408 843 352z m-576 -960 c40 -20 46 -43 20 -71 -23 -24 -73 -46 -83
-37 -8 8 -7 72 0 101 7 26 24 28 63 7z m506 -437 c158 -159 129 -209 -87 -147
-67 20 -98 39 -98 63 0 20 56 102 81 120 36 24 47 20 104 -36z"/>
<path d="M1635 1931 c-67 -16 -111 -48 -279 -203 -22 -21 -48 -38 -58 -38 -10
0 -57 29 -105 65 -102 75 -164 110 -213 120 -32 6 -20 -8 143 -172 l177 -178
207 208 c215 214 219 220 128 198z"/>
</g>
</svg>
