<?xml version="1.0" standalone="no"?>
<!DOCTYPE svg PUBLIC "-//W3C//DTD SVG 20010904//EN"
 "http://www.w3.org/TR/2001/REC-SVG-20010904/DTD/svg10.dtd">
<svg version="1.0" xmlns="http://www.w3.org/2000/svg"
 width="920.000000pt" height="512.000000pt" viewBox="0 0 920.000000 512.000000"
 preserveAspectRatio="xMidYMid meet">

<g transform="translate(0.000000,512.000000) scale(0.100000,-0.100000)"
fill="#000000" stroke="none">
<path d="M4380 5108 c-492 -36 -1002 -244 -1397 -567 -796 -651 -1124 -1708
-838 -2699 192 -670 680 -1254 1310 -1569 344 -173 693 -258 1089 -268 445
-10 848 84 1243 290 680 354 1178 1020 1322 1769 43 220 58 494 40 711 -48
584 -299 1135 -709 1559 -544 562 -1265 833 -2060 774z m-793 -969 c15 -5 222
-203 458 -439 449 -448 474 -469 556 -470 79 0 99 17 544 460 237 235 444 435
462 444 53 26 131 21 184 -13 66 -43 365 -350 384 -393 17 -43 20 -114 4 -155
-5 -15 -205 -224 -444 -463 -293 -294 -439 -447 -450 -472 -8 -21 -15 -54 -15
-75 1 -84 21 -108 465 -553 289 -290 429 -437 440 -462 25 -61 20 -127 -14
-179 -43 -66 -350 -365 -393 -384 -43 -17 -114 -20 -155 -4 -15 5 -221 203
-458 439 -450 449 -474 469 -558 470 -21 0 -54 -7 -75 -16 -25 -10 -176 -153
-467 -443 -236 -236 -444 -436 -462 -445 -53 -26 -131 -21 -184 13 -66 43
-365 350 -384 393 -17 43 -20 114 -4 155 5 15 203 222 438 458 277 278 436
445 450 472 11 23 21 59 21 80 -1 84 -21 108 -465 553 -289 290 -429 437 -440
462 -25 61 -20 127 14 179 40 62 349 365 391 383 41 18 117 20 157 5z"/>
</g>
</svg>
