<?xml version="1.0" standalone="yes"?>
<svg xmlns="http://www.w3.org/2000/svg" width="920" height="678">
<path style="fill:#f7f7f7; stroke:none;" d="M0 0L0 678L920 678L920 0L0 0z"/>
<path style="fill:#afd2e6; stroke:none;" d="M472 40L472 41L479 41L472 40z"/>
<path style="fill:#82bada; stroke:none;" d="M479 40L479 41L483 41L479 40z"/>
<path style="fill:#5ca6d1; stroke:none;" d="M483 40L483 41L488 41L483 40z"/>
<path style="fill:#3993c9; stroke:none;" d="M365 245L242 245C221.893 245 198.188 241.931 180 252.465C168.851 258.921 162.98 270.301 162.09 283C159.717 316.855 157.162 355.388 161.576 389C163.543 403.983 163.952 416.559 178 425.895C192.114 435.275 210.759 435 227 435C256.047 435 284.984 433 314 433C325.748 433 337.3 433.265 349 434.09C353.36 434.397 360.262 434.778 363.258 438.419C365.908 441.64 365 447.129 365 451L365 481C365 516.567 362.048 553.654 365.834 589C367.744 606.828 373.287 624.428 391 632.334C408.953 640.348 431.828 637 451 637C472.818 637 496.373 639.528 518 636.711C540.161 633.824 551.304 616.8 554.561 596C560.468 558.27 554 517.179 554 479L554 450C554 446.156 553.078 440.614 555.742 437.43C558.73 433.86 564.793 434.021 569 434.001C579.666 433.949 590.334 434 601 434L706 434C725.326 434 744.049 430.959 752.662 411C760.216 393.494 757.819 368.738 758 350C758.201 329.193 760.431 308.783 757.844 288C756.021 273.355 749.786 257.013 736 249.824C722.425 242.745 705.772 245 691 245L603 245L569 245C564.632 244.993 558.733 245.303 555.603 241.581C552.982 238.462 554 232.778 554 229L554 196L554 105C554 89.739 555.79 72.3641 546.895 59C539.142 47.3515 524.356 42.5112 511 41.1705C493.181 39.3818 475.801 41.7845 458 41.9962C439.844 42.212 422.082 39.982 404 42.5795C390.284 44.5497 377.153 49.2875 369.88 62C359.016 80.9917 363.05 108.208 363.961 129C365.65 167.585 365 206.335 365 245z"/>
<path style="fill:#5ca6d1; stroke:none;" d="M501.667 40.3333L502.333 40.6667L501.667 40.3333z"/>
<path style="fill:#82bada; stroke:none;" d="M503 40L503 41L506 41L503 40z"/>
<path style="fill:#afd2e6; stroke:none;" d="M506 40L506 41L510 41L506 40M407 41L407 42L410 42L407 41z"/>
<path style="fill:#82bada; stroke:none;" d="M410.667 41.3333L411.333 41.6667L410.667 41.3333z"/>
<path style="fill:#5ca6d1; stroke:none;" d="M412.667 41.3333L413.333 41.6667L412.667 41.3333M435 41L435 42L442 42L435 41z"/>
<path style="fill:#82bada; stroke:none;" d="M442 41L442 42L450 42L442 41z"/>
<path style="fill:#afd2e6; stroke:none;" d="M450 41L450 42L456 42L450 41z"/>
<path style="fill:#82bada; stroke:none;" d="M456 41L456 42L461 42L456 41z"/>
<path style="fill:#5ca6d1; stroke:none;" d="M461 41L461 42L465 42L461 41M513 41L514 42L513 41z"/>
<path style="fill:#82bada; stroke:none;" d="M514 41L515 42L514 41z"/>
<path style="fill:#afd2e6; stroke:none;" d="M515.667 41.3333L516.333 41.6667L515.667 41.3333M400 42L401 43L400 42z"/>
<path style="fill:#82bada; stroke:none;" d="M401.667 42.3333L402.333 42.6667L401.667 42.3333z"/>
<path style="fill:#5ca6d1; stroke:none;" d="M403.667 42.3333L404.333 42.6667L403.667 42.3333M518 42L519 43L518 42z"/>
<path style="fill:#82bada; stroke:none;" d="M519 42L520 43L519 42z"/>
<path style="fill:#afd2e6; stroke:none;" d="M520.667 42.3333L521.333 42.6667L520.667 42.3333M395 43L396 44L395 43z"/>
<path style="fill:#82bada; stroke:none;" d="M396 43L397 44L396 43z"/>
<path style="fill:#5ca6d1; stroke:none;" d="M397 43L398 44L397 43M523 43L524 44L523 43z"/>
<path style="fill:#82bada; stroke:none;" d="M524 43L525 44L524 43z"/>
<path style="fill:#afd2e6; stroke:none;" d="M525 43L526 44L525 43M392 44L393 45L392 44z"/>
<path style="fill:#5ca6d1; stroke:none;" d="M393 44L394 45L393 44M526 44L527 45L526 44z"/>
<path style="fill:#82bada; stroke:none;" d="M527 44L528 45L527 44z"/>
<path style="fill:#afd2e6; stroke:none;" d="M528 44L529 45L528 44M389 45L390 46L389 45z"/>
<path style="fill:#5ca6d1; stroke:none;" d="M390 45L391 46L390 45M529 45L530 46L529 45z"/>
<path style="fill:#afd2e6; stroke:none;" d="M530 45L531 46L530 45z"/>
<path style="fill:#82bada; stroke:none;" d="M387 46L388 47L387 46z"/>
<path style="fill:#5ca6d1; stroke:none;" d="M531 46L532 47L531 46z"/>
<path style="fill:#afd2e6; stroke:none;" d="M532 46L533 47L532 46z"/>
<path style="fill:#82bada; stroke:none;" d="M385 47L386 48L385 47z"/>
<path style="fill:#afd2e6; stroke:none;" d="M534 47L535 48L534 47z"/>
<path style="fill:#5ca6d1; stroke:none;" d="M383 48L384 49L383 48M535 48L536 49L535 48z"/>
<path style="fill:#afd2e6; stroke:none;" d="M536 48L537 49L536 48M381 49L382 50L381 49z"/>
<path style="fill:#82bada; stroke:none;" d="M537 49L538 50L537 49z"/>
<path style="fill:#5ca6d1; stroke:none;" d="M380 50L381 51L380 50M538 50L539 51L538 50z"/>
<path style="fill:#afd2e6; stroke:none;" d="M378 51L379 52L378 51M540 51L541 52L540 51z"/>
<path style="fill:#82bada; stroke:none;" d="M377 52L378 53L377 52z"/>
<path style="fill:#afd2e6; stroke:none;" d="M541 52L542 53L541 52z"/>
<path style="fill:#82bada; stroke:none;" d="M376 53L377 54L376 53M542 53L543 54L542 53z"/>
<path style="fill:#5ca6d1; stroke:none;" d="M375 54L376 55L375 54z"/>
<path style="fill:#afd2e6; stroke:none;" d="M543 54L544 55L543 54z"/>
<path style="fill:#5ca6d1; stroke:none;" d="M374 55L375 56L374 55z"/>
<path style="fill:#afd2e6; stroke:none;" d="M544 55L545 56L544 55z"/>
<path style="fill:#82bada; stroke:none;" d="M373 56L374 57L373 56z"/>
<path style="fill:#afd2e6; stroke:none;" d="M545 56L546 57L545 56M372 57L373 58L372 57z"/>
<path style="fill:#5ca6d1; stroke:none;" d="M546 58L547 59L546 58M371 59L372 60L371 59z"/>
<path style="fill:#afd2e6; stroke:none;" d="M547 59L548 60L547 59z"/>
<path style="fill:#82bada; stroke:none;" d="M370 60L371 61L370 60M548 61L549 62L548 61M369 62L370 63L369 62z"/>
<path style="fill:#afd2e6; stroke:none;" d="M549 62L550 63L549 62z"/>
<path style="fill:#82bada; stroke:none;" d="M549 63L550 64L549 63M368 64L369 65L368 64M550 65L551 66L550 65M367 66L368 67L367 66z"/>
<path style="fill:#afd2e6; stroke:none;" d="M551 67L552 68L551 67M366 68L367 69L366 68z"/>
<path style="fill:#82bada; stroke:none;" d="M551 68L552 69L551 68M366 69L367 70L366 69z"/>
<path style="fill:#5ca6d1; stroke:none;" d="M366 70L367 71L366 70z"/>
<path style="fill:#afd2e6; stroke:none;" d="M552 70L553 71L552 70z"/>
<path style="fill:#82bada; stroke:none;" d="M552 71L553 72L552 71z"/>
<path style="fill:#afd2e6; stroke:none;" d="M365 72L366 73L365 72z"/>
<path style="fill:#5ca6d1; stroke:none;" d="M552 72L553 73L552 72z"/>
<path style="fill:#82bada; stroke:none;" d="M365 73L366 74L365 73z"/>
<path style="fill:#afd2e6; stroke:none;" d="M553.333 75.6667L553.667 76.3333L553.333 75.6667M364.333 76.6667L364.667 77.3333L364.333 76.6667z"/>
<path style="fill:#82bada; stroke:none;" d="M553 77L554 78L553 77M364 78L365 79L364 78z"/>
<path style="fill:#5ca6d1; stroke:none;" d="M553.333 78.6667L553.667 79.3333L553.333 78.6667M364.333 79.6667L364.667 80.3333L364.333 79.6667z"/>
<path style="fill:#afd2e6; stroke:none;" d="M554 82L554 92L555 92L554 82M363.333 83.6667L363.667 84.3333L363.333 83.6667z"/>
<path style="fill:#82bada; stroke:none;" d="M363 85L363 88L364 88L363 85z"/>
<path style="fill:#5ca6d1; stroke:none;" d="M363.333 88.6667L363.667 89.3333L363.333 88.6667z"/>
<path style="fill:#82bada; stroke:none;" d="M554 92L554 223L555 223L555 132C555 120.58 558.408 102.504 554 92z"/>
<path style="fill:#afd2e6; stroke:none;" d="M362 94L362 117L363 117L362 94z"/>
<path style="fill:#5ca6d1; stroke:none;" d="M363 124L363 128L364 128L363 124z"/>
<path style="fill:#82bada; stroke:none;" d="M363 128L363 133L364 133L363 128z"/>
<path style="fill:#afd2e6; stroke:none;" d="M363 133L363 140L364 140L363 133z"/>
<path style="fill:#5ca6d1; stroke:none;" d="M364 150L364 156L365 156L364 150z"/>
<path style="fill:#82bada; stroke:none;" d="M364 156L364 244L232 244L232 245L329 245L354 245L363.397 243.972L365 223L365 177L364 156z"/>
<path style="fill:#afd2e6; stroke:none;" d="M554 223L554 229L555 229L554 223z"/>
<path style="fill:#82bada; stroke:none;" d="M554 240L555 241L554 240z"/>
<path style="fill:#5ca6d1; stroke:none;" d="M554 241L555 242L554 241M555 242L556 243L555 242z"/>
<path style="fill:#82bada; stroke:none;" d="M557 243L558 244L557 243z"/>
<path style="fill:#afd2e6; stroke:none;" d="M558 243L559 244L558 243M209 244L209 245L214 245L209 244z"/>
<path style="fill:#82bada; stroke:none;" d="M214 244L214 245L218 245L214 244z"/>
<path style="fill:#5ca6d1; stroke:none;" d="M218 244L218 245L232 245L218 244M364 244L365 245L364 244M560 244L560 245L563 245L560 244z"/>
<path style="fill:#82bada; stroke:none;" d="M563 244L563 245L704 245C693.02 240.393 673.944 244 662 244L563 244z"/>
<path style="fill:#5ca6d1; stroke:none;" d="M704 244L704 245L708 245L704 244z"/>
<path style="fill:#82bada; stroke:none;" d="M708 244L708 245L715 245L708 244z"/>
<path style="fill:#afd2e6; stroke:none;" d="M715 244L715 245L720 245L715 244M200.667 245.333L201.333 245.667L200.667 245.333z"/>
<path style="fill:#82bada; stroke:none;" d="M202 245L203 246L202 245z"/>
<path style="fill:#5ca6d1; stroke:none;" d="M203 245L204 246L203 245M722.667 245.333L723.333 245.667L722.667 245.333z"/>
<path style="fill:#82bada; stroke:none;" d="M724 245L725 246L724 245z"/>
<path style="fill:#afd2e6; stroke:none;" d="M725 245L726 246L725 245M195 246L196 247L195 246z"/>
<path style="fill:#82bada; stroke:none;" d="M196 246L197 247L196 246z"/>
<path style="fill:#5ca6d1; stroke:none;" d="M197 246L198 247L197 246M727 246L728 247L727 246z"/>
<path style="fill:#82bada; stroke:none;" d="M728 246L729 247L728 246z"/>
<path style="fill:#afd2e6; stroke:none;" d="M729 246L730 247L729 246z"/>
<path style="fill:#82bada; stroke:none;" d="M191 247L192 248L191 247z"/>
<path style="fill:#5ca6d1; stroke:none;" d="M192 247L193 248L192 247M730 247L731 248L730 247z"/>
<path style="fill:#82bada; stroke:none;" d="M731 247L732 248L731 247M188 248L189 249L188 248z"/>
<path style="fill:#5ca6d1; stroke:none;" d="M189 248L190 249L189 248M733 248L734 249L733 248z"/>
<path style="fill:#afd2e6; stroke:none;" d="M734 248L735 249L734 248z"/>
<path style="fill:#82bada; stroke:none;" d="M185 249L186 250L185 249z"/>
<path style="fill:#5ca6d1; stroke:none;" d="M186 249L187 250L186 249M735 249L736 250L735 249z"/>
<path style="fill:#afd2e6; stroke:none;" d="M736 249L737 250L736 249z"/>
<path style="fill:#82bada; stroke:none;" d="M183 250L184 251L183 250M737 250L738 251L737 250M181 251L182 252L181 251z"/>
<path style="fill:#afd2e6; stroke:none;" d="M739 251L740 252L739 251z"/>
<path style="fill:#82bada; stroke:none;" d="M179 252L180 253L179 252M740 252L741 253L740 252z"/>
<path style="fill:#afd2e6; stroke:none;" d="M177 253L178 254L177 253z"/>
<path style="fill:#5ca6d1; stroke:none;" d="M178 253L179 254L178 253M741 253L742 254L741 253z"/>
<path style="fill:#82bada; stroke:none;" d="M176 254L177 255L176 254z"/>
<path style="fill:#5ca6d1; stroke:none;" d="M742 254L743 255L742 254M175 255L176 256L175 255z"/>
<path style="fill:#afd2e6; stroke:none;" d="M744 255L745 256L744 255M173 256L174 257L173 256M745 256L746 257L745 256M172 257L173 258L172 257z"/>
<path style="fill:#5ca6d1; stroke:none;" d="M745 257L746 258L745 257z"/>
<path style="fill:#afd2e6; stroke:none;" d="M171 258L172 259L171 258z"/>
<path style="fill:#5ca6d1; stroke:none;" d="M746 258L747 259L746 258z"/>
<path style="fill:#afd2e6; stroke:none;" d="M170 259L171 260L170 259z"/>
<path style="fill:#82bada; stroke:none;" d="M747 259L748 260L747 259z"/>
<path style="fill:#afd2e6; stroke:none;" d="M748 260L749 261L748 260z"/>
<path style="fill:#5ca6d1; stroke:none;" d="M169 261L170 262L169 261z"/>
<path style="fill:#afd2e6; stroke:none;" d="M168 262L169 263L168 262z"/>
<path style="fill:#82bada; stroke:none;" d="M749 262L750 263L749 262z"/>
<path style="fill:#afd2e6; stroke:none;" d="M750 263L751 264L750 263z"/>
<path style="fill:#5ca6d1; stroke:none;" d="M167 264L168 265L167 264M750 264L751 265L750 264z"/>
<path style="fill:#afd2e6; stroke:none;" d="M166 265L167 266L166 265M751 265L752 266L751 265z"/>
<path style="fill:#5ca6d1; stroke:none;" d="M166 266L167 267L166 266M751 266L752 267L751 266z"/>
<path style="fill:#afd2e6; stroke:none;" d="M165 267L166 268L165 267M752 267L753 268L752 267z"/>
<path style="fill:#82bada; stroke:none;" d="M165 268L166 269L165 268z"/>
<path style="fill:#5ca6d1; stroke:none;" d="M752 268L753 269L752 268z"/>
<path style="fill:#afd2e6; stroke:none;" d="M753 269L754 270L753 269z"/>
<path style="fill:#82bada; stroke:none;" d="M164 270L165 271L164 270M753 270L754 271L753 270z"/>
<path style="fill:#afd2e6; stroke:none;" d="M163 272L164 273L163 272M754 272L755 273L754 272z"/>
<path style="fill:#82bada; stroke:none;" d="M163 273L164 274L163 273z"/>
<path style="fill:#5ca6d1; stroke:none;" d="M754 273L755 274L754 273M163 274L164 275L163 274z"/>
<path style="fill:#afd2e6; stroke:none;" d="M755 275L756 276L755 275z"/>
<path style="fill:#82bada; stroke:none;" d="M755 276L756 277L755 276z"/>
<path style="fill:#afd2e6; stroke:none;" d="M162 277L163 278L162 277z"/>
<path style="fill:#82bada; stroke:none;" d="M162 278L163 279L162 278z"/>
<path style="fill:#afd2e6; stroke:none;" d="M756.333 278.667L756.667 279.333L756.333 278.667z"/>
<path style="fill:#5ca6d1; stroke:none;" d="M162 279L163 280L162 279M756 280L757 281L756 280z"/>
<path style="fill:#afd2e6; stroke:none;" d="M757.333 282.667L757.667 283.333L757.333 282.667z"/>
<path style="fill:#82bada; stroke:none;" d="M757 284L758 285L757 284z"/>
<path style="fill:#afd2e6; stroke:none;" d="M161 285L161 290L162 290L161 285z"/>
<path style="fill:#5ca6d1; stroke:none;" d="M757 285L758 286L757 285z"/>
<path style="fill:#afd2e6; stroke:none;" d="M758.333 288.667L758.667 289.333L758.333 288.667z"/>
<path style="fill:#82bada; stroke:none;" d="M161 290L161 302L162 302L161 290M758.333 290.667L758.667 291.333L758.333 290.667z"/>
<path style="fill:#5ca6d1; stroke:none;" d="M758.333 292.667L758.667 293.333L758.333 292.667z"/>
<path style="fill:#afd2e6; stroke:none;" d="M759 298L759 302L760 302L759 298z"/>
<path style="fill:#5ca6d1; stroke:none;" d="M161 302L161 313L162 313L161 302z"/>
<path style="fill:#82bada; stroke:none;" d="M759 302L759 305L760 305L759 302z"/>
<path style="fill:#5ca6d1; stroke:none;" d="M759 305L759 308L760 308L759 305M759 312L759 327L760 327L759 312z"/>
<path style="fill:#afd2e6; stroke:none;" d="M160 323L160 333L161 333L160 323z"/>
<path style="fill:#82bada; stroke:none;" d="M759 327L759 331L760 331L759 327z"/>
<path style="fill:#afd2e6; stroke:none;" d="M759 331L759 337L760 337L759 331z"/>
<path style="fill:#82bada; stroke:none;" d="M160 333L160 340L161 340L160 333z"/>
<path style="fill:#5ca6d1; stroke:none;" d="M160 340L160 363L161 363L160 340M758 342L758 345L759 345L758 342z"/>
<path style="fill:#82bada; stroke:none;" d="M758 345L758 348L759 348L758 345z"/>
<path style="fill:#afd2e6; stroke:none;" d="M758 348L758 353L759 353L758 348z"/>
<path style="fill:#5ca6d1; stroke:none;" d="M757 357L757 361L758 361L757 357z"/>
<path style="fill:#82bada; stroke:none;" d="M757 361L757 367L758 367L757 361z"/>
<path style="fill:#afd2e6; stroke:none;" d="M757 367L757 389L758 389L757 367z"/>
<path style="fill:#5ca6d1; stroke:none;" d="M160 369L160 374L161 374L160 369z"/>
<path style="fill:#82bada; stroke:none;" d="M160 374L160 380L161 380L160 374z"/>
<path style="fill:#afd2e6; stroke:none;" d="M160 380L160 385L161 385L160 380z"/>
<path style="fill:#5ca6d1; stroke:none;" d="M161 388L161 391L162 391L161 388z"/>
<path style="fill:#82bada; stroke:none;" d="M161 391L161 394L162 394L161 391z"/>
<path style="fill:#5ca6d1; stroke:none;" d="M756 393L756 396L757 396L756 393z"/>
<path style="fill:#afd2e6; stroke:none;" d="M161 394L161 397L162 397L161 394z"/>
<path style="fill:#82bada; stroke:none;" d="M756 396L757 397L756 396z"/>
<path style="fill:#afd2e6; stroke:none;" d="M756.333 397.667L756.667 398.333L756.333 397.667z"/>
<path style="fill:#5ca6d1; stroke:none;" d="M162.333 401.667L162.667 402.333L162.333 401.667M755.333 401.667L755.667 402.333L755.333 401.667z"/>
<path style="fill:#82bada; stroke:none;" d="M162 403L163 404L162 403z"/>
<path style="fill:#afd2e6; stroke:none;" d="M755 403L756 404L755 403M162 404L163 405L162 404z"/>
<path style="fill:#5ca6d1; stroke:none;" d="M754 405L755 406L754 405z"/>
<path style="fill:#82bada; stroke:none;" d="M163 406L164 407L163 406M754 406L755 407L754 406z"/>
<path style="fill:#afd2e6; stroke:none;" d="M163 407L164 408L163 407M754 407L755 408L754 407z"/>
<path style="fill:#5ca6d1; stroke:none;" d="M164 409L165 410L164 409M753 409L754 410L753 409z"/>
<path style="fill:#82bada; stroke:none;" d="M164 410L165 411L164 410z"/>
<path style="fill:#afd2e6; stroke:none;" d="M753 410L754 411L753 410z"/>
<path style="fill:#5ca6d1; stroke:none;" d="M752 411L753 412L752 411z"/>
<path style="fill:#afd2e6; stroke:none;" d="M165 412L166 413L165 412M752 412L753 413L752 412z"/>
<path style="fill:#5ca6d1; stroke:none;" d="M166 413L167 414L166 413M751 413L752 414L751 413z"/>
<path style="fill:#afd2e6; stroke:none;" d="M166 414L167 415L166 414M751 414L752 415L751 414z"/>
<path style="fill:#5ca6d1; stroke:none;" d="M167 415L168 416L167 415M750 415L751 416L750 415z"/>
<path style="fill:#afd2e6; stroke:none;" d="M167 416L168 417L167 416M750 416L751 417L750 416z"/>
<path style="fill:#82bada; stroke:none;" d="M168 417L169 418L168 417M749 417L750 418L749 417M169 418L170 419L169 418z"/>
<path style="fill:#5ca6d1; stroke:none;" d="M748 418L749 419L748 418M170 419L171 420L170 419M747 419L748 420L747 419M171 420L172 421L171 420z"/>
<path style="fill:#afd2e6; stroke:none;" d="M747 420L748 421L747 420z"/>
<path style="fill:#5ca6d1; stroke:none;" d="M172 421L173 422L172 421z"/>
<path style="fill:#afd2e6; stroke:none;" d="M746 421L747 422L746 421z"/>
<path style="fill:#5ca6d1; stroke:none;" d="M173 422L174 423L173 422z"/>
<path style="fill:#82bada; stroke:none;" d="M745 422L746 423L745 422M174 423L175 424L174 423z"/>
<path style="fill:#afd2e6; stroke:none;" d="M744 423L745 424L744 423M175 424L176 425L175 424M743 424L744 425L743 424z"/>
<path style="fill:#5ca6d1; stroke:none;" d="M177 425L178 426L177 425M741 425L742 426L741 425z"/>
<path style="fill:#afd2e6; stroke:none;" d="M178 426L179 427L178 426z"/>
<path style="fill:#5ca6d1; stroke:none;" d="M740 426L741 427L740 426z"/>
<path style="fill:#82bada; stroke:none;" d="M180 427L181 428L180 427M739 427L740 428L739 427M182 428L183 429L182 428z"/>
<path style="fill:#5ca6d1; stroke:none;" d="M737 428L738 429L737 428z"/>
<path style="fill:#afd2e6; stroke:none;" d="M738 428L739 429L738 428M184 429L185 430L184 429z"/>
<path style="fill:#5ca6d1; stroke:none;" d="M735 429L736 430L735 429z"/>
<path style="fill:#afd2e6; stroke:none;" d="M736 429L737 430L736 429M186 430L187 431L186 430z"/>
<path style="fill:#82bada; stroke:none;" d="M187 430L188 431L187 430z"/>
<path style="fill:#5ca6d1; stroke:none;" d="M733 430L734 431L733 430z"/>
<path style="fill:#afd2e6; stroke:none;" d="M734 430L735 431L734 430M189 431L190 432L189 431z"/>
<path style="fill:#82bada; stroke:none;" d="M190 431L191 432L190 431M731 431L732 432L731 431z"/>
<path style="fill:#afd2e6; stroke:none;" d="M732 431L733 432L732 431M192.667 432.333L193.333 432.667L192.667 432.333z"/>
<path style="fill:#82bada; stroke:none;" d="M194 432L195 433L194 432z"/>
<path style="fill:#5ca6d1; stroke:none;" d="M727 432L728 433L727 432z"/>
<path style="fill:#82bada; stroke:none;" d="M728 432L729 433L728 432z"/>
<path style="fill:#afd2e6; stroke:none;" d="M729 432L730 433L729 432M197 433L198 434L197 433z"/>
<path style="fill:#82bada; stroke:none;" d="M198 433L199 434L198 433z"/>
<path style="fill:#5ca6d1; stroke:none;" d="M199 433L200 434L199 433M294 433L294 434L303 434L294 433z"/>
<path style="fill:#82bada; stroke:none;" d="M303 433L303 434L315 434L303 433z"/>
<path style="fill:#afd2e6; stroke:none;" d="M315 433L315 434L326 434L315 433z"/>
<path style="fill:#82bada; stroke:none;" d="M326 433L326 434L338 434L326 433z"/>
<path style="fill:#5ca6d1; stroke:none;" d="M338 433L338 434L341 434L338 433M723 433L724 434L723 433z"/>
<path style="fill:#82bada; stroke:none;" d="M724 433L725 434L724 433z"/>
<path style="fill:#afd2e6; stroke:none;" d="M725 433L726 434L725 433M202 434L202 435L205 435L202 434z"/>
<path style="fill:#82bada; stroke:none;" d="M205 434L206 435L205 434z"/>
<path style="fill:#5ca6d1; stroke:none;" d="M206.667 434.333L207.333 434.667L206.667 434.333M258 434L258 435L264 435L258 434z"/>
<path style="fill:#82bada; stroke:none;" d="M264 434L264 435L271 435L264 434z"/>
<path style="fill:#afd2e6; stroke:none;" d="M271 434L271 435L281 435L271 434M346 434L346 435L351 435L346 434z"/>
<path style="fill:#82bada; stroke:none;" d="M351 434L352 435L351 434z"/>
<path style="fill:#5ca6d1; stroke:none;" d="M352 434L353 435L352 434M561 434L561 435L564 435L561 434z"/>
<path style="fill:#82bada; stroke:none;" d="M564 434L564 435L698 435C687.496 430.592 669.42 434 658 434L564 434z"/>
<path style="fill:#5ca6d1; stroke:none;" d="M698 434L698 435L710 435L698 434z"/>
<path style="fill:#82bada; stroke:none;" d="M710 434L710 435L717 435L710 434z"/>
<path style="fill:#afd2e6; stroke:none;" d="M717 434L717 435L720 435L717 434M211 435L211 436L216 436L211 435z"/>
<path style="fill:#82bada; stroke:none;" d="M216 435L216 436L241 436L216 435z"/>
<path style="fill:#afd2e6; stroke:none;" d="M241 435L241 436L250 436L241 435M355 435L356 436L355 435z"/>
<path style="fill:#82bada; stroke:none;" d="M356.667 435.333L357.333 435.667L356.667 435.333z"/>
<path style="fill:#5ca6d1; stroke:none;" d="M358 435L359 436L358 435z"/>
<path style="fill:#82bada; stroke:none;" d="M557 435L558 436L557 435z"/>
<path style="fill:#afd2e6; stroke:none;" d="M558 435L559 436L558 435M360 436L361 437L360 436z"/>
<path style="fill:#82bada; stroke:none;" d="M361 436L362 437L361 436z"/>
<path style="fill:#5ca6d1; stroke:none;" d="M555 436L556 437L555 436M363 437L364 438L363 437z"/>
<path style="fill:#82bada; stroke:none;" d="M554 438L555 439L554 438M364 439L364 575L365 575L365 480C365 468.318 368.507 449.742 364 439z"/>
<path style="fill:#afd2e6; stroke:none;" d="M554 450L554 456L555 456L554 450z"/>
<path style="fill:#82bada; stroke:none;" d="M554 456L554 528L555 528L555 479L554 456z"/>
<path style="fill:#5ca6d1; stroke:none;" d="M554 528L554 533L555 533L554 528z"/>
<path style="fill:#afd2e6; stroke:none;" d="M555 539L555 543L556 543L555 539z"/>
<path style="fill:#82bada; stroke:none;" d="M555 543L555 547L556 547L555 543z"/>
<path style="fill:#5ca6d1; stroke:none;" d="M555 547L555 551L556 551L555 547z"/>
<path style="fill:#afd2e6; stroke:none;" d="M556 557L556 564L557 564L556 557z"/>
<path style="fill:#82bada; stroke:none;" d="M556 564L557 565L556 564z"/>
<path style="fill:#afd2e6; stroke:none;" d="M556 565L556 583L557 583L556 565M364 575L364 583L365 583L364 575z"/>
<path style="fill:#5ca6d1; stroke:none;" d="M365.333 586.667L365.667 587.333L365.333 586.667M555.333 586.667L555.667 587.333L555.333 586.667z"/>
<path style="fill:#82bada; stroke:none;" d="M365.333 588.667L365.667 589.333L365.333 588.667M555.333 588.667L555.667 589.333L555.333 588.667z"/>
<path style="fill:#afd2e6; stroke:none;" d="M365 590L365 593L366 593L365 590M555 590L555 594L556 594L555 590z"/>
<path style="fill:#5ca6d1; stroke:none;" d="M366 595L367 596L366 595z"/>
<path style="fill:#82bada; stroke:none;" d="M366 596L367 597L366 596z"/>
<path style="fill:#5ca6d1; stroke:none;" d="M554 596L555 597L554 596z"/>
<path style="fill:#afd2e6; stroke:none;" d="M366 597L367 598L366 597z"/>
<path style="fill:#82bada; stroke:none;" d="M554 597L555 598L554 597z"/>
<path style="fill:#afd2e6; stroke:none;" d="M554.333 598.667L554.667 599.333L554.333 598.667z"/>
<path style="fill:#5ca6d1; stroke:none;" d="M367 599L368 600L367 599z"/>
<path style="fill:#82bada; stroke:none;" d="M367 600L368 601L367 600z"/>
<path style="fill:#afd2e6; stroke:none;" d="M367.333 601.667L367.667 602.333L367.333 601.667z"/>
<path style="fill:#5ca6d1; stroke:none;" d="M553 601L554 602L553 601z"/>
<path style="fill:#82bada; stroke:none;" d="M553 602L554 603L553 602z"/>
<path style="fill:#afd2e6; stroke:none;" d="M553 603L554 604L553 603z"/>
<path style="fill:#5ca6d1; stroke:none;" d="M368 604L369 605L368 604z"/>
<path style="fill:#82bada; stroke:none;" d="M368 605L369 606L368 605z"/>
<path style="fill:#5ca6d1; stroke:none;" d="M552 605L553 606L552 605z"/>
<path style="fill:#afd2e6; stroke:none;" d="M368 606L369 607L368 606M552.333 606.667L552.667 607.333L552.333 606.667z"/>
<path style="fill:#82bada; stroke:none;" d="M369 608L370 609L369 608z"/>
<path style="fill:#afd2e6; stroke:none;" d="M369 609L370 610L369 609z"/>
<path style="fill:#82bada; stroke:none;" d="M551 609L552 610L551 609z"/>
<path style="fill:#5ca6d1; stroke:none;" d="M370 610L371 611L370 610z"/>
<path style="fill:#afd2e6; stroke:none;" d="M551 610L552 611L551 610M370 611L371 612L370 611z"/>
<path style="fill:#5ca6d1; stroke:none;" d="M550 611L551 612L550 611z"/>
<path style="fill:#afd2e6; stroke:none;" d="M550 612L551 613L550 612z"/>
<path style="fill:#82bada; stroke:none;" d="M371 613L372 614L371 613M549 614L550 615L549 614M372 615L373 616L372 615M548 616L549 617L548 616z"/>
<path style="fill:#afd2e6; stroke:none;" d="M373 617L374 618L373 617z"/>
<path style="fill:#5ca6d1; stroke:none;" d="M374 618L375 619L374 618z"/>
<path style="fill:#afd2e6; stroke:none;" d="M547 618L548 619L547 618z"/>
<path style="fill:#5ca6d1; stroke:none;" d="M546 619L547 620L546 619z"/>
<path style="fill:#afd2e6; stroke:none;" d="M375 620L376 621L375 620M546 620L547 621L546 620z"/>
<path style="fill:#82bada; stroke:none;" d="M376 621L377 622L376 621M545 621L546 622L545 621z"/>
<path style="fill:#5ca6d1; stroke:none;" d="M377 622L378 623L377 622M544 622L545 623L544 622M378 623L379 624L378 623M543 623L544 624L543 623M379 624L380 625L379 624z"/>
<path style="fill:#afd2e6; stroke:none;" d="M543 624L544 625L543 624z"/>
<path style="fill:#5ca6d1; stroke:none;" d="M380 625L381 626L380 625z"/>
<path style="fill:#afd2e6; stroke:none;" d="M542 625L543 626L542 625z"/>
<path style="fill:#5ca6d1; stroke:none;" d="M381 626L382 627L381 626z"/>
<path style="fill:#afd2e6; stroke:none;" d="M541 626L542 627L541 626z"/>
<path style="fill:#82bada; stroke:none;" d="M382 627L383 628L382 627z"/>
<path style="fill:#afd2e6; stroke:none;" d="M540 627L541 628L540 627M383 628L384 629L383 628z"/>
<path style="fill:#5ca6d1; stroke:none;" d="M538 628L539 629L538 628M385 629L386 630L385 629M537 629L538 630L537 629z"/>
<path style="fill:#afd2e6; stroke:none;" d="M386 630L387 631L386 630z"/>
<path style="fill:#5ca6d1; stroke:none;" d="M387 630L388 631L387 630z"/>
<path style="fill:#82bada; stroke:none;" d="M536 630L537 631L536 630z"/>
<path style="fill:#afd2e6; stroke:none;" d="M388 631L389 632L388 631z"/>
<path style="fill:#82bada; stroke:none;" d="M534 631L535 632L534 631z"/>
<path style="fill:#afd2e6; stroke:none;" d="M390 632L391 633L390 632z"/>
<path style="fill:#5ca6d1; stroke:none;" d="M391 632L392 633L391 632M532 632L533 633L532 632z"/>
<path style="fill:#afd2e6; stroke:none;" d="M533 632L534 633L533 632M392 633L393 634L392 633z"/>
<path style="fill:#82bada; stroke:none;" d="M393 633L394 634L393 633z"/>
<path style="fill:#5ca6d1; stroke:none;" d="M530 633L531 634L530 633z"/>
<path style="fill:#afd2e6; stroke:none;" d="M531 633L532 634L531 633M395 634L396 635L395 634z"/>
<path style="fill:#82bada; stroke:none;" d="M396 634L397 635L396 634z"/>
<path style="fill:#5ca6d1; stroke:none;" d="M527 634L528 635L527 634z"/>
<path style="fill:#82bada; stroke:none;" d="M528 634L529 635L528 634z"/>
<path style="fill:#afd2e6; stroke:none;" d="M399 635L400 636L399 635z"/>
<path style="fill:#5ca6d1; stroke:none;" d="M400 635L401 636L400 635M524 635L525 636L524 635z"/>
<path style="fill:#82bada; stroke:none;" d="M525 635L526 636L525 635z"/>
<path style="fill:#afd2e6; stroke:none;" d="M403.667 636.333L404.333 636.667L403.667 636.333z"/>
<path style="fill:#82bada; stroke:none;" d="M405 636L406 637L405 636z"/>
<path style="fill:#5ca6d1; stroke:none;" d="M406.667 636.333L407.333 636.667L406.667 636.333M519 636L520 637L519 636z"/>
<path style="fill:#82bada; stroke:none;" d="M520 636L521 637L520 636z"/>
<path style="fill:#afd2e6; stroke:none;" d="M521.667 636.333L522.333 636.667L521.667 636.333M411 637L411 638L418 638L411 637z"/>
<path style="fill:#82bada; stroke:none;" d="M418 637L418 638L491 638L468 637L418 637z"/>
<path style="fill:#5ca6d1; stroke:none;" d="M491 637L491 638L512 638L491 637z"/>
<path style="fill:#82bada; stroke:none;" d="M512 637L512 638L515 638L512 637z"/>
<path style="fill:#afd2e6; stroke:none;" d="M515 637L515 638L518 638L515 637z"/>
</svg>
